<svg id="图层_1" data-name="图层 1" xmlns="http://www.w3.org/2000/svg" viewBox="0 0 22.85 22.85"><defs><style>.cls-1{fill:#dcdddd;}</style></defs><title>gray-star</title><path class="cls-1" d="M292.64,432.09a2,2,0,0,1-1.14-.36,2.11,2.11,0,0,1-.87-2l.75-5.63-4.07-3.83a2.12,2.12,0,0,1-.58-2.13,2,2,0,0,1,1.59-1.48l5.42-1,2.27-5.18a2,2,0,0,1,1.78-1.23h.07a2,2,0,0,1,1.78,1.1l2.6,5,5.47.63a2,2,0,0,1,1.68,1.37,2.13,2.13,0,0,1-.44,2.16l-3.81,4.1,1.11,5.57a2.12,2.12,0,0,1-.74,2.07,2,2,0,0,1-2.13.23l-5-2.48-4.78,2.81a2,2,0,0,1-1,.27Z" transform="translate(-286.66 -409.24)"/></svg>